Coordinates
version=1
nRows=10
nColumns=33
inDegrees=yes

Units are S.I. units (second, meters, Newtons, ...)
Angles are in degrees.

endheader
time	ground_thorax_rot_x	ground_thorax_rot_y	ground_thorax_rot_z	ground_thorax_tx	ground_thorax_ty	ground_thorax_tz	clav_prot_r	clav_elev_r	scapula_abduction_r	scapula_elevation_r	scapula_upward_rot_r	scapula_winging_r	shoulder_elv_r	plane_of_elev_r	axial_rot_r	elbow_flexion_r	pro_sup_r	wrist_flex_r	wrist_dev_r	clav_prot_l	clav_elev_l	scapula_abduction_l	scapula_elevation_l	scapula_upward_rot_l	scapula_winging_l	shoulder_elv_l	plane_of_elev_l	axial_rot_l	elbow_flexion_l	pro_sup_l	wrist_flex_l	wrist_dev_l
      7.97000000	     39.58628635	     -2.10828845	     10.04156665	   -118.63400426	    796.41386074	     -0.87723911	     15.86087889	     37.47549649	     37.58043314	     45.00000000	    -45.00000000	  -3312.13382093	  -2626.83596765	    146.65820142	    179.99999979	   1447.54379658	     53.29470476	     23.17294442	     14.36114804	      8.62595818	    -45.00000000	    -40.58184368	     45.00000000	    -31.10131228	   2970.53660044	    -99.56421218	    141.41071597	    154.96627853	   1086.62388701	     22.75436588	     10.46252742	    -19.36212491
      7.98000000	     39.58282555	     -2.22131550	     10.06178475	   -124.46485708	    797.92254240	     -1.34854200	     16.00569174	     36.98676261	     37.25164484	     45.00000000	    -45.00000000	  -3312.33476824	  -2626.91962079	    146.85564590	    179.99999979	   1447.52706567	     54.05434121	     23.42768450	     14.38891834	      9.12328791	    -45.00000000	    -40.62878646	     45.00000000	    -31.32202857	   2971.27157928	    -99.61897954	    141.41188441	    153.80992523	   1086.87740266	     23.86440380	     10.45822664	    -19.59525269
      7.99000000	     39.59850453	     -2.10338555	     10.27594851	   -130.33039182	    799.56666478	     -1.80931196	     15.41967722	     37.33319735	     36.59750123	     45.00000000	    -45.00000000	  -3312.53786077	  -2626.78362761	    146.95237248	    179.99999979	   1447.43382653	     54.98358248	     23.68255828	     14.40140253	      8.81638554	    -45.00000000	    -39.73493134	     45.00000000	    -33.05994636	   2970.90866031	    -99.10680534	    141.56926708	    153.75205998	   1087.18395222	     24.61775698	     10.14663717	    -19.71458761
      8.00000000	     39.60475686	     -2.09750973	     10.32245324	   -136.19754635	    801.34448891	     -2.25964651	     15.18725644	     37.27175420	     36.11813017	     45.00000000	    -45.00000000	  -3312.75956625	  -2626.75172290	    147.08944943	    179.99999979	   1447.37874150	     55.80736604	     23.94351928	     14.41266197	      8.89979183	    -45.00000000	    -39.30863715	     45.00000000	    -33.99565985	   2971.13388548	    -98.94010801	    141.61438815	    153.13914785	   1087.40541329	     25.43012820	     10.04167711	    -19.89782851
      8.01000000	     39.52748432	     -2.26402686	     10.22923365	   -142.03074120	    803.25430559	     -2.69710409	     15.49646059	     36.59958634	     35.77691130	     45.00000000	    -45.00000000	  -3312.83824724	  -2626.72364323	    147.31685169	    179.99999979	   1447.41112398	     56.45752929	     24.14898066	     14.44659202	      9.53503812	    -45.00000000	    -39.37434857	     45.00000000	    -33.89310683	   2971.94297313	    -98.91888901	    141.70367232	    151.80385812	   1087.72772848	     26.44319999	     10.16816142	    -20.17658981
      8.02000000	     39.49039149	     -2.27280009	     10.27285296	   -147.80034243	    805.29665626	     -3.11777972	     15.37545272	     36.49743218	     35.39445075	     45.00000000	    -45.00000000	  -3313.05519746	  -2626.74420927	    147.47998483	    179.99999979	   1447.32128262	     57.13762664	     24.38718570	     14.47670868	      9.60922129	    -45.00000000	    -39.03058232	     45.00000000	    -34.58728629	   2972.23271762	    -98.79225331	    141.87041485	    150.99227275	   1087.97434386	     27.28996470	     10.07183071	    -20.37294454
      8.03000000	     39.47337462	     -2.21876783	     10.34174227	   -153.47871323	    807.46824235	     -3.51646284	     14.99003836	     36.61377930	     34.96952410	     45.00000000	    -45.00000000	  -3313.37432635	  -2626.72897231	    147.59985720	    179.99999979	   1447.31276468	     57.82440531	     24.67349326	     14.46499278	      9.61519278	    -45.00000000	    -38.44847300	     45.00000000	    -35.88621484	   2972.25781974	    -98.48344809	    141.94294918	    150.51043980	   1088.14604611	     27.95166247	      9.86560826	    -20.50577014
      8.04000000	     39.43262388	     -2.23990352	     10.24583627	   -159.03064792	    809.75974636	     -3.88703464	     14.75124835	     36.58145113	     34.56732071	     45.00000000	    -45.00000000	  -3313.60065227	  -2626.69534136	    147.69044514	    179.99999979	   1447.25724242	     58.46590043	     24.90743745	     14.46048427	      9.65249328	    -45.00000000	    -38.11229176	     45.00000000	    -36.73998807	   2972.43741274	    -98.25754628	    141.99210557	    150.02795588	   1088.34804986	     28.57468561	      9.82693795	    -20.70424748
      8.05000000	     39.35680825	     -2.33646905	     10.00098212	   -164.44008937	    812.16733640	     -4.22548149	     14.70890829	     36.36413156	     34.19639407	     45.00000000	    -45.00000000	  -3313.72240940	  -2626.62980387	    147.85874021	    179.99999979	   1447.34332708	     58.97251170	     25.10701333	     14.44465005	      9.84527914	    -45.00000000	    -37.98912142	     45.00000000	    -37.18042334	   2972.68639026	    -98.02084570	    142.18722129	    149.23218645	   1088.65314327	     29.28601651	      9.90705660	    -20.96610034
      8.06000000	     39.31374216	     -2.35964469	      9.92943317	   -169.67973707	    814.68074695	     -4.52853806	     14.50272280	     36.30772620	     33.83572185	     45.00000000	    -45.00000000	  -3314.01128107	  -2626.58011316	    147.89909938	    179.99999979	   1447.32427528	     59.43160987	     25.32107489	     14.43921614	      9.94319976	    -45.00000000	    -37.66883449	     45.00000000	    -38.03474258	   2972.94484899	    -97.80646538	    142.26641042	    148.58065193	   1088.87599465	     29.91132617	      9.79241087	    -21.13500092
